<svg width="378" height="183" viewBox="0 0 378 183" fill="none" xmlns="http://www.w3.org/2000/svg">
<path d="M173.945 129.051H0V143.165H173.945V129.051Z" fill="#FFF8ED"/>
<path d="M20.1662 178.405H19.3422L15.4319 160.589H11.9452L8.03483 178.405H7.21086L3.75672 160.589H0L4.67379 181.975H10.4183L13.6909 166.944L16.9588 181.975H22.7033L27.3771 160.589H23.6203L20.1662 178.405Z" fill="#FFF8ED"/>
<path d="M49.3542 170.426H41.0447V160.589H37.3765V181.975H41.0447V173.787H49.3542V181.975H52.9899V160.589H49.3542V170.426Z" fill="#FFF8ED"/>
<path d="M64.2739 181.975H77.1082V178.586H67.9375V172.32H76.5543V169.02H67.9375V163.978H77.1082V160.589H64.2739V181.975Z" fill="#FFF8ED"/>
<path d="M102.353 167.619C102.353 162.605 100.091 160.589 95.4171 160.589H87.6848V181.98H91.3531V175.505H95.6638L98.8433 181.98H103.061L98.9364 174.159C101.227 173.182 102.358 171.045 102.358 167.623L102.353 167.619ZM95.0493 172.139H91.3531V163.95H94.9609C97.7726 163.95 98.6571 164.835 98.6571 167.982C98.6571 170.915 97.5584 172.139 95.054 172.139H95.0493Z" fill="#FFF8ED"/>
<path d="M113.111 181.975H125.946V178.586H116.78V172.32H125.396V169.02H116.78V163.978H125.946V160.589H113.111V181.975Z" fill="#FFF8ED"/>
<path d="M155.869 169.876L151.437 160.589H147.192L154.035 173.787V181.975H157.703V173.787L164.579 160.589H160.329L155.869 169.876Z" fill="#FFF8ED"/>
<path d="M180.746 160.222C175.156 160.222 172.954 162.819 172.954 167.8V174.764C172.954 179.773 175.156 182.343 180.746 182.343C186.337 182.343 188.539 179.773 188.539 174.764V167.8C188.539 162.852 186.37 160.222 180.746 160.222ZM184.903 174.522C184.903 177.697 183.926 179.043 180.746 179.043C177.567 179.043 176.622 177.697 176.622 174.522V168.014C176.622 164.868 177.599 163.522 180.746 163.522C183.893 163.522 184.903 164.868 184.903 168.014V174.522Z" fill="#FFF8ED"/>
<path d="M211.461 173.908C211.461 177.422 210.237 178.828 207.276 178.828C204.316 178.828 203.18 177.422 203.18 173.908V160.585H199.511V174.764C199.511 179.378 202.505 182.25 207.272 182.25C212.038 182.25 215.092 179.378 215.092 174.764V160.585H211.457V173.908H211.461Z" fill="#FFF8ED"/>
<path d="M249.848 170.761C252.385 170.091 253.549 167.982 253.549 165.752C253.549 162.698 251.682 160.589 247.804 160.589H239.797V181.98H246.948C251.44 181.98 254.158 180.332 254.158 176.082C254.158 173.237 252.571 171.222 249.848 170.766V170.761ZM243.461 163.857H247.064C249.019 163.857 249.876 164.895 249.876 166.543C249.876 168.284 248.898 169.476 246.943 169.476H243.461V163.857ZM246.454 178.707H243.461V172.6H246.64C249.392 172.6 250.49 173.303 250.49 175.747C250.49 178.191 249.238 178.712 246.454 178.712V178.707Z" fill="#FFF8ED"/>
<path d="M264.921 181.975H277.756V178.586H268.59V172.32H277.206V169.02H268.59V163.978H277.756V160.589H264.921V181.975Z" fill="#FFF8ED"/>
<path d="M292 160.589H288.332V181.975H299.849V178.405H292V160.589Z" fill="#FFF8ED"/>
<path d="M316.971 160.222C311.38 160.222 309.178 162.819 309.178 167.8V174.764C309.178 179.773 311.375 182.343 316.971 182.343C322.566 182.343 324.764 179.773 324.764 174.764V167.8C324.764 162.852 322.594 160.222 316.971 160.222ZM321.128 174.522C321.128 177.697 320.15 179.043 316.971 179.043C313.791 179.043 312.846 177.697 312.846 174.522V168.014C312.846 164.868 313.824 163.522 316.971 163.522C320.118 163.522 321.128 164.868 321.128 168.014V174.522Z" fill="#FFF8ED"/>
<path d="M347.741 170.915L347.867 175.593L346.247 172.474L339.371 160.589H335.736V181.975H339.311V171.161L339.19 166.055L340.87 169.355L347.988 181.975H351.317V160.589H347.741V170.915Z" fill="#FFF8ED"/>
<path d="M370.119 173.144H374.397V175.742C374.397 178.004 373.298 179.075 370.24 179.075C366.725 179.075 365.962 177.516 365.962 174.522V168.014C365.962 164.532 367.06 163.522 370.086 163.522C373.112 163.522 374.211 164.346 374.211 166.609V167.4H377.846V166.18C377.846 162.358 375.463 160.222 370.114 160.222C364.765 160.222 362.293 162.852 362.293 167.8V174.737C362.293 179.718 364.463 182.348 369.597 182.348C372.102 182.348 373.969 181.491 375.035 179.904L375.37 181.98H377.995V169.909H370.114V173.149L370.119 173.144Z" fill="#FFF8ED"/>
<path d="M179.876 0L148.397 62.9193H167.116L171.822 53.3948H206.866L211.591 62.9193H230.454L198.827 0H179.871H179.876ZM178.847 39.1872L189.312 18.0202L199.818 39.1872H178.852H178.847Z" fill="#FFF8ED"/>
<path d="M245.169 120.132L206.313 80.2461H189.331V143.161H206.313V103.666L245.309 143.165H262.175V80.288H245.169V120.132Z" fill="#FFF8ED"/>
<path d="M327.566 80.1992L295.943 143.119H314.806L319.531 133.594H354.575L359.282 143.119H378L346.522 80.1992H327.566ZM326.584 119.386L337.09 98.2194L347.555 119.386H326.588H326.584Z" fill="#FFF8ED"/>
<path d="M322.631 62.975H297.265V111.682H280.269V62.975H254.885V48.8047H322.631V62.975Z" fill="#FFF8ED"/>
<path d="M31.4783 49.0791L0 111.998H18.7184L23.4248 102.474H58.469L63.194 111.998H82.0567L50.4341 49.0791H31.4783ZM30.4495 88.2663L40.9143 67.0993L51.421 88.2663H30.4541H30.4495Z" fill="#FFF8ED"/>
<path d="M55.3733 31.8549H80.7347V80.5573H97.7307V31.8549H123.115V17.6846H55.3733V31.8549Z" fill="#FFF8ED"/>
<path d="M132.849 49.1211H115.858V111.999H173.945V97.9306H132.849V49.1211Z" fill="#FFF8ED"/>
</svg>
