<svg width="247" height="245" viewBox="0 0 247 245" fill="none" xmlns="http://www.w3.org/2000/svg">
<g id="White Stamp">
<g id="Group">
<path id="Vector" d="M35.47 99.9002L34.6201 108.51L11.61 111.19L33.66 118.31L32.8101 126.92L0.0600586 130.77L0.610046 125.14L27.8201 122.59L27.9401 121.35L1.82007 112.86L2.33002 107.64L29.61 104.41L29.73 103.17L3.54004 95.3702L4.09003 89.7402L35.46 99.9002H35.47Z" fill="white"/>
<path id="Vector_2" d="M18.61 59.5801L30.9301 67.8301L37.9 57.4201L25.58 49.1701L28.6301 44.6201L55.41 62.5501L52.36 67.1001L42.11 60.2401L35.14 70.6401L45.39 77.5001L42.3201 82.0901L15.54 64.1601L18.61 59.5701V59.5801Z" fill="white"/>
<path id="Vector_3" d="M54.83 27.4904L59.11 33.7605L69.83 26.4405L72.6301 30.5504L61.91 37.8705L67.23 45.6605L78.64 37.8805L81.52 42.1005L65.55 52.9904L47.39 26.3705L63.36 15.4805L66.2401 19.7005L54.83 27.4805V27.4904Z" fill="white"/>
<path id="Vector_4" d="M97.6801 2.82016C104.55 1.26016 108.54 3.48015 110.2 10.8402C111.34 15.8702 110.39 19.3801 107.35 21.5801L116.01 31.7002L109.82 33.1002L103 24.6402L96.67 26.0702L98.8201 35.5801L93.4301 36.8001L86.3201 5.38016L97.6801 2.81015V2.82016ZM100.98 19.9102C104.66 19.0802 105.87 16.9202 104.89 12.6102C103.84 7.99017 102.25 6.98016 98.1201 7.91016L92.8201 9.11017L95.54 21.1402L100.97 19.9102H100.98Z" fill="white"/>
<path id="Vector_5" d="M138.38 5.9801L137.21 13.4801L150.03 15.4801L149.26 20.3901L136.44 18.3901L134.99 27.7101L148.63 29.8401L147.84 34.8901L128.74 31.9101L133.7 0.0800781L152.8 3.06009L152.01 8.11011L138.37 5.9801H138.38Z" fill="white"/>
<path id="Vector_6" d="M201.78 27.87L197.2 42.68L211.62 36.95L216.32 41.29L195.23 48.89L186.87 57.96L182.81 54.22L191.17 45.15L197.07 23.54L201.77 27.88L201.78 27.87Z" fill="white"/>
<path id="Vector_7" d="M229.89 86.1802L220.36 90.5902C213.51 93.7602 208.63 92.4203 205.07 84.7303C201.53 77.0803 203.65 72.4502 210.5 69.2802L220.03 64.8702C226.84 61.7202 231.78 63.0803 235.32 70.7303C238.88 78.4203 236.66 83.0502 229.89 86.1802ZM222.06 70.0202L213.16 74.1403C208.81 76.1503 207.6 78.3403 209.59 82.6403C211.6 86.9803 214.06 87.4702 218.4 85.4602L227.3 81.3402C231.6 79.3502 232.82 77.1602 230.81 72.8102C228.82 68.5102 226.36 68.0202 222.06 70.0102V70.0202Z" fill="white"/>
<path id="Vector_8" d="M245.87 112.69L225.82 113.25C220.53 113.4 218.46 115.2 218.59 119.62C218.71 124.08 220.88 125.86 226.17 125.72L246.22 125.16L246.37 130.63L225.03 131.22C218.08 131.41 213.64 127.02 213.44 119.76C213.24 112.58 217.44 107.96 224.39 107.77L245.73 107.18L245.88 112.7L245.87 112.69Z" fill="white"/>
</g>
<g id="Group_2">
<path id="Vector_9" d="M222.97 193.97C219.61 198.75 215.39 199.22 211.62 196.57C208.87 194.64 207.28 191.38 208.65 187.67C205.73 190.62 201.86 190.84 198.36 188.37C193.12 184.69 193.45 179.91 197.34 174.37L203.54 165.56L229.91 184.1L222.97 193.97ZM204.4 172.91L201.8 176.6C199.39 180.03 198.98 182.05 201.96 184.14C204.97 186.26 206.79 185.51 209.18 182.12L211.94 178.2L204.41 172.9L204.4 172.91ZM215.77 180.91L212.75 185.2C211.05 187.61 211.68 189.85 213.82 191.36C215.85 192.79 217.88 192.64 219.57 190.22L222.7 185.78L215.77 180.91Z" fill="white"/>
<path id="Vector_10" d="M191.79 217.88L187.58 211.56L176.78 218.76L174.02 214.62L184.82 207.42L179.58 199.57L168.09 207.23L165.25 202.98L181.33 192.25L199.21 219.05L183.13 229.78L180.29 225.53L191.78 217.87L191.79 217.88Z" fill="white"/>
<path id="Vector_11" d="M155.26 240.58L148.92 214.51L137.43 217.31L136.16 212.08L153.02 207.98L160.63 239.28L155.26 240.59V240.58Z" fill="white"/>
<path id="Vector_12" d="M97.67 231.33L99.03 220.92C100.01 213.44 103.74 210.03 112.14 211.12C120.49 212.21 123.28 216.47 122.3 223.95L120.94 234.36C119.97 241.8 116.18 245.25 107.83 244.16C99.43 243.07 96.7 238.72 97.67 231.33ZM115.51 233.33L116.78 223.61C117.4 218.86 116.2 216.66 111.5 216.05C106.75 215.43 105.03 217.25 104.41 222L103.14 231.72C102.53 236.42 103.73 238.62 108.47 239.24C113.17 239.85 114.89 238.03 115.5 233.33H115.51Z" fill="white"/>
<path id="Vector_13" d="M51.0701 221.39L67.6 193.72L71.91 196.29L71.3701 218.12L70.9901 223.69L74.78 216.99L83.14 203L87.7601 205.76L71.23 233.43L66.53 230.62L66.8201 209.93L67.1301 204.65L63.67 210.79L55.6901 224.15L51.0701 221.39Z" fill="white"/>
<path id="Vector_14" d="M29.39 182.98L28.4201 183.68C25.6601 185.67 25.64 187.78 28.28 191.44C30.94 195.14 33.14 195.59 37.4 192.53L45.35 186.8C49.01 184.16 50.24 181.86 47.15 177.57C44.46 173.84 42.1901 173.43 39.4201 175.42L36.2501 177.71L40.0101 182.94L36.0501 185.79L29.1101 176.16L43.8601 165.54L46.1701 168.75L43.9301 170.99C46.8101 170.9 49.5001 172.42 51.7001 175.48C56.2201 181.75 54.91 186.72 48.83 191.1L40.35 197.2C34.3 201.55 29.1 201.1 24.21 194.31C19.51 187.77 20.0201 182.98 24.6901 179.62L26.1801 178.55L29.3801 182.99L29.39 182.98Z" fill="white"/>
</g>
<g id="Group_3">
<path id="Vector_15" d="M81.14 99.6592L56.8 148.319H71.28L74.92 140.959H102.02L105.67 148.319H120.26L95.8 99.6592H81.14ZM80.34 129.959L88.4301 113.589L96.55 129.959H80.34Z" fill="white"/>
<path id="Vector_16" d="M99.6101 86.3496H119.22V124.01H132.37V86.3496H152V75.3896H99.6101V86.3496Z" fill="white"/>
<path id="Vector_17" d="M159.52 99.6992H146.38V148.319H191.3V137.439H159.52V99.6992Z" fill="white"/>
</g>
</g>
</svg>
