<?xml version="1.0" encoding="utf-8"?>
<!-- Generator: Adobe Illustrator 28.0.0, SVG Export Plug-In . SVG Version: 6.00 Build 0)  -->
<svg version="1.1" id="Layer_1" xmlns="http://www.w3.org/2000/svg" xmlns:xlink="http://www.w3.org/1999/xlink" x="0px" y="0px"
	 viewBox="0 0 512 512" style="enable-background:new 0 0 512 512;" xml:space="preserve">
<style type="text/css">
	.st0{fill:#D62E2E;}
	.st1{fill:#FFF7ED;}
</style>
<g>
	<path class="st0" d="M511.6,256c0-141.4-114.6-256-256-256s-256,114.6-256,256s114.6,256,256,256S511.6,397.4,511.6,256"/>
</g>
<path class="st1" d="M142.9,285.8l21.1-42.7l21.2,42.7H142.9z M145,206.6l-63.6,127h37.8l9.5-19.2h70.7l9.5,19.2h38.1l-63.8-127H145
	z"/>
<polygon class="st1" points="193.3,171.9 244.5,171.9 244.5,270.2 278.8,270.2 278.8,171.9 330,171.9 330,143.3 193.3,143.3 "/>
<polygon class="st1" points="349.7,206.7 315.4,206.7 315.4,333.7 432.6,333.7 432.6,305.3 349.7,305.3 "/>
</svg>
